HIERARCHY
ROOT hip
{
	OFFSET 0.000000 0.000000 0.000000 
	CHANNELS 6 Xposition Yposition Zposition Xrotation Zrotation Yrotation
	JOINT abdomen
	{
		OFFSET 0.000000 3.402643 0.000000 
		CHANNELS 3 Xrotation Zrotation Yrotation
		JOINT chest
		{
			OFFSET 0.000000 8.438565 -0.680529 
			CHANNELS 3 Xrotation Zrotation Yrotation
			JOINT neck
			{
				OFFSET 0.000000 10.207942 -0.272212 
				CHANNELS 3 Xrotation Zrotation Yrotation
				JOINT head
				{
					OFFSET 0.000000 3.130431 0.000000 
					CHANNELS 3 Xrotation Zrotation Yrotation
					End Site
					{
						OFFSET 0.000000 3.130435 0.000000 
					}
				}
			}
			JOINT lCollar
			{
				OFFSET 3.470700 6.669187 -0.816635 
				CHANNELS 3 Yrotation Zrotation Xrotation
				JOINT lShldr
				{
					OFFSET 3.198488 0.000000 0.000000 
					CHANNELS 3 Zrotation Yrotation Xrotation
					JOINT lForeArm
					{
						OFFSET 10.139888 0.000000 0.000000 
						CHANNELS 3 Yrotation Zrotation Xrotation
						JOINT lHand
						{
							OFFSET 8.370511 0.000000 0.000000 
							CHANNELS 3 Zrotation Yrotation Xrotation
							End Site
							{
								OFFSET 4.083176 0.000000 0.000000 
							}
						}
					}
				}
			}
			JOINT rCollar
			{
				OFFSET -3.470700 6.669187 -0.816635 
				CHANNELS 3 Yrotation Zrotation Xrotation
				JOINT rShldr
				{
					OFFSET -3.198488 0.000000 0.000000 
					CHANNELS 3 Zrotation Yrotation Xrotation
					JOINT rForeArm
					{
						OFFSET -10.139888 0.000000 0.000000 
						CHANNELS 3 Yrotation Zrotation Xrotation
						JOINT rHand
						{
							OFFSET -8.370511 0.000000 0.000000 
							CHANNELS 3 Zrotation Yrotation Xrotation
							End Site
							{
								OFFSET -4.083176 0.000000 0.000000 
							}
						}
					}
				}
			}
		}
	}
	JOINT lThigh
	{
		OFFSET 5.308129 -1.633274 1.361059 
		CHANNELS 3 Xrotation Zrotation Yrotation
		JOINT lShin
		{
			OFFSET -2.041588 -20.007561 0.000000 
			CHANNELS 3 Xrotation Zrotation Yrotation
			JOINT lFoot
			{
				OFFSET 0.000000 -19.190928 -1.224953 
				CHANNELS 3 Xrotation Yrotation Zrotation
				End Site
				{
					OFFSET 0.000000 -2.449906 4.627600 
				}
			}
		}
	}
	JOINT rThigh
	{
		OFFSET -5.308129 -1.633274 1.361059 
		CHANNELS 3 Xrotation Zrotation Yrotation
		JOINT rShin
		{
			OFFSET 2.041588 -20.007561 0.000000 
			CHANNELS 3 Xrotation Zrotation Yrotation
			JOINT rFoot
			{
				OFFSET 0.000000 -19.190928 -1.224953 
				CHANNELS 3 Xrotation Yrotation Zrotation
				End Site
				{
					OFFSET 0.000000 -2.449906 4.627600 
				}
			}
		}
	}
}
MOTION
Frames: 13
Frame Time: 0.016667
0.813789 43.867035 -0.362155 2.391140 4.781010 -13.784800 -16.574499 4.035840 -1.779070 19.937799 6.171520 -0.427472 30.215000 -3.042180 -3.656710 16.065901 3.499620 -1.495600 2.000000 -2.000000 0.000000 81.354698 167.201996 -6.055690 21.025600 -0.342462 0.049112 0.045398 -0.015645 -142.516998 -2.000000 2.000000 0.000000 84.200897 -5.921160 136.287994 -22.851801 0.340834 0.053096 -0.054610 0.001511 -133.973007 -8.547859 -2.173517 -11.575245 25.920656 3.318800 1.796214 -12.765837 -9.465997 -1.800114 -27.677874 -3.981503 16.711493 35.515343 -2.693558 -2.561898 -5.813042 -1.709855 -0.558102 
1.431504 43.773411 -0.618752 2.159900 5.904040 -15.724200 -16.520000 3.187760 -1.320430 19.860001 5.585530 -0.331161 29.533501 -2.450650 -4.063690 15.771800 3.465770 -1.687450 2.000000 -2.000000 0.000000 84.216499 168.955002 -3.912920 20.000200 -0.343319 0.046821 0.045436 -0.016026 -142.654007 -2.000000 2.000000 0.000000 84.253998 -4.588130 139.044006 -25.234699 0.338518 0.058288 -0.054416 -0.002351 -136.082001 -7.960394 -4.060472 -9.770808 24.661282 3.150466 1.774770 -13.648483 -6.178155 -1.119898 -29.009808 -5.388479 17.348932 35.796459 -2.729760 -2.558697 -5.537982 0.470491 -0.358933 
2.012000 43.753605 -0.862422 2.071720 5.953170 -17.586901 -16.661501 3.071930 -2.047490 19.780899 6.034610 -0.706111 28.161501 -2.596920 -3.408420 15.022800 3.773680 -1.470210 2.000000 -2.000000 0.000000 85.174599 170.279007 -6.243800 19.267799 -0.343906 0.045175 0.045088 -0.012076 -141.238007 -2.000000 2.000000 0.000000 82.640701 -3.670400 144.386993 -28.857700 0.334587 0.065987 -0.054555 0.007081 -139.451004 -7.581801 -4.730360 -8.617541 23.591331 3.106222 1.719686 -13.686806 -4.039392 -0.526868 -29.821394 -5.568855 17.134880 35.342525 -2.760710 -2.536467 -4.701752 1.952057 -0.269958 
2.592508 43.733925 -1.106083 1.983530 6.002290 -19.449800 -16.799700 2.955990 -2.774730 19.701599 6.473890 -1.082130 26.780399 -2.714990 -2.745650 14.283400 4.082300 -1.270000 2.000000 -2.000000 0.000000 -93.808502 8.436650 171.417007 18.535400 -0.344472 0.043522 0.044840 -0.008146 -139.832001 -2.000000 2.000000 0.000000 81.133797 -2.616580 149.701004 -32.480801 0.330178 0.073422 -0.055249 0.016489 -142.820007 -7.146115 -5.391475 -7.466881 22.425430 3.042374 1.673232 -13.758233 -1.911669 0.093164 -30.647472 -5.763386 16.898645 34.927052 -2.788547 -2.492673 -3.883317 3.451482 -0.184676 
3.132989 43.726978 -1.424832 2.316860 5.874130 -21.197500 -16.921101 2.915950 -3.188310 19.661800 6.737470 -1.295670 26.092400 -2.325500 -2.463600 14.023300 4.365100 -1.210430 2.000000 -2.000000 0.000000 -91.853897 6.468530 169.195007 17.646700 -0.345131 0.041506 0.044756 -0.006289 -139.167999 -2.000000 2.000000 0.000000 80.181099 -1.843560 153.619003 -37.265999 0.323652 0.082787 -0.056026 0.022785 -145.085999 -7.534317 -5.351357 -6.484510 21.582762 2.924538 1.643769 -13.350011 -1.516284 0.283535 -31.490458 -5.416146 17.259838 33.696743 -2.819839 -2.423198 -2.279920 4.093721 -0.278978 
3.673482 43.719902 -1.743591 2.659900 5.755550 -22.945299 -17.051201 2.875620 -3.603480 19.631800 7.001050 -1.498620 25.395599 -1.922150 -2.177420 13.753400 4.638790 -1.155120 2.000000 -2.000000 0.000000 -89.830902 4.568670 166.914001 16.767799 -0.345751 0.039503 0.044694 -0.004430 -138.503998 -2.000000 2.000000 0.000000 79.286499 -1.002430 157.526993 -42.051201 0.316367 0.091575 -0.057051 0.029046 -147.350998 -7.980429 -5.325732 -5.485853 20.842615 2.852423 1.621992 -12.988885 -1.141531 0.470495 -32.398842 -5.023742 17.592978 32.611809 -2.864716 -2.354384 -0.749962 4.770033 -0.363968 
4.153088 43.773537 -2.064913 2.824790 5.345100 -24.560200 -16.935301 2.886680 -3.516890 19.789499 6.786510 -1.447440 24.731100 -1.067890 -2.412400 13.542700 4.940750 -1.347210 2.000000 -2.000000 0.000000 -87.124496 2.455320 165.199997 16.523600 -0.345918 0.038945 0.044640 -0.001477 -137.449005 -2.000000 2.000000 0.000000 78.966103 -0.723983 159.666000 -47.939899 0.306437 0.101508 -0.057919 0.033418 -148.942993 -8.639054 -4.983943 -4.088279 21.186682 2.799031 1.666593 -12.939496 -0.998158 0.577487 -32.534592 -4.418605 17.677422 31.273199 -2.882591 -2.271377 0.029389 3.965113 -0.377202 
4.632705 43.827164 -2.386234 2.999410 4.934670 -26.186300 -16.809401 2.894480 -3.438880 19.947201 6.581660 -1.397530 24.072201 -0.211768 -2.652530 13.322400 5.252810 -1.540000 2.000000 -2.000000 0.000000 -84.349800 0.419903 163.388000 16.269699 -0.346089 0.038364 0.044640 0.001476 -136.393997 -2.000000 2.000000 0.000000 78.645500 -0.426088 161.815002 -53.818901 0.295559 0.110356 -0.058914 0.037790 -150.544998 -9.276632 -4.621533 -2.668324 21.538130 2.758808 1.703376 -12.916895 -0.866563 0.678216 -32.616211 -3.843837 17.749346 29.855074 -2.905154 -2.190166 0.802758 3.167077 -0.397166 
5.090124 43.898285 -2.712958 3.087180 4.836750 -27.346201 -17.039200 2.762840 -3.598350 19.534500 6.493120 -1.511350 22.686199 -0.029935 -2.789720 12.695500 5.301790 -1.630470 2.000000 -2.000000 0.000000 -81.799004 -0.885105 160.666000 17.090000 -0.345527 0.040238 0.044686 0.004128 -135.447006 -2.000000 2.000000 0.000000 78.285599 -0.635551 163.738998 -59.619701 0.283992 0.117949 -0.059755 0.041104 -151.764999 -9.955467 -4.713775 -1.868463 21.875292 2.676345 1.752404 -12.584735 -0.211884 0.894591 -32.677734 -3.715747 16.986473 29.501465 -2.902304 -2.174441 -1.960060 1.518466 -0.256330 
5.547543 43.969395 -3.039671 3.184770 4.748550 -28.495100 -17.268700 2.637220 -3.769790 19.131701 6.404290 -1.622820 21.310200 0.152621 -2.934520 12.058800 5.360090 -1.712580 2.000000 -2.000000 0.000000 -79.198997 -2.072950 157.884995 17.910400 -0.344939 0.042105 0.044775 0.006752 -134.509995 -2.000000 2.000000 0.000000 77.925400 -0.835290 165.662003 -65.420403 0.271718 0.124334 -0.060658 0.044372 -152.975998 -10.553831 -4.777152 -1.069140 22.149509 2.616311 1.786177 -12.266475 0.449555 1.110047 -32.679031 -3.601198 16.219273 29.001356 -2.887648 -2.148772 -4.682782 -0.145291 -0.210526 
5.975663 44.050293 -3.336233 3.164820 4.670630 -29.751101 -17.285601 2.523070 -3.796900 19.083099 6.218660 -1.652850 20.331301 0.520146 -3.092590 11.707600 5.491160 -1.806660 2.000000 -2.000000 0.000000 -76.726997 -3.404530 156.315002 19.336201 -0.343852 0.045329 0.044646 -0.002079 -137.664001 -2.000000 2.000000 0.000000 77.564903 -0.926510 167.097000 -70.977097 0.259412 0.129256 -0.061477 0.047124 -154.001999 -10.800875 -4.972733 -1.111817 21.812059 2.557781 1.781139 -11.401662 1.520928 1.376037 -32.730030 -3.463100 14.667333 29.586763 -2.837723 -2.186778 -6.608840 -0.824367 -0.208081 
6.403774 44.131306 -3.632817 3.144870 4.592710 -30.997200 -17.302401 2.414830 -3.835580 19.034599 6.023280 -1.682310 19.342800 0.882725 -3.257560 11.356100 5.612560 -1.903560 2.000000 -2.000000 0.000000 -74.215797 -4.667860 154.677002 20.771700 -0.342678 0.048547 0.045004 -0.010904 -140.817993 -2.000000 2.000000 0.000000 77.204300 -1.017730 168.522995 -76.533699 0.246687 0.132965 -0.062345 0.049861 -155.026993 -11.049446 -5.162349 -1.135116 21.512136 2.515327 1.778680 -10.574654 2.595239 1.615253 -32.724648 -3.339329 13.142236 30.026266 -2.779084 -2.243625 -8.445756 -1.482136 -0.228747 
6.763121 44.196510 -3.951734 3.311560 4.621210 -32.652100 -17.306601 2.470520 -3.659360 19.250601 6.023840 -1.581640 18.571400 1.351810 -3.398610 11.103700 5.800360 -2.002320 2.000000 -2.000000 0.000000 -72.173203 -5.814010 153.009995 22.783501 -0.340897 0.053004 0.046082 -0.021512 -144.626999 -2.000000 2.000000 0.000000 76.736000 -0.863764 169.500000 -81.357903 0.235393 0.135172 -0.062439 0.050147 -155.134995 -11.533785 -5.219453 -0.900690 21.323402 2.451771 1.790654 -9.749949 4.128445 1.971797 -32.646095 -2.841939 11.970451 30.874405 -2.657865 -2.335919 -9.434938 -3.335244 -0.458311 
